PathFileType	4	(X/Y/Z)	RBDS016\RBDS016runT35.trc
DataRate	CameraRate	NumFrames	NumMarkers	Units	OrigDataRate	OrigDataStartFrame	OrigNumFrames
150.000000	150.000000	4	33	mm	150.000000	1125	4500
Frame#	Time	L.ASIS			L.Heel.Bottom			L.Heel.Lateral			L.Heel.Top			L.Iliac.Crest			L.MT1			L.MT5			L.PSIS			L.Shank.Bottom.Lateral			L.Shank.Bottom.Medial			L.Shank.Top.Lateral			L.Shank.Top.Medial			L.Thigh.Bottom.Lateral			L.Thigh.Bottom.Medial			L.Thigh.Top.Lateral			L.Thigh.Top.Medial			R.ASIS			R.ASY			R.Heel.Bottom			R.Heel.Lateral			R.Heel.Top			R.Iliac.Crest			R.MT1			R.MT5			R.PSIS			R.Shank.Bottom.Lateral			R.Shank.Bottom.Medial			R.Shank.Top.Lateral			R.Shank.Top.Medial			R.Thigh.Bottom.Lateral			R.Thigh.Bottom.Medial			R.Thigh.Top.Lateral			R.Thigh.Top.Medial			
		X1	Y1	Z1	X2	Y2	Z2	X3	Y3	Z3	X4	Y4	Z4	X5	Y5	Z5	X6	Y6	Z6	X7	Y7	Z7	X8	Y8	Z8	X9	Y9	Z9	X10	Y10	Z10	X11	Y11	Z11	X12	Y12	Z12	X13	Y13	Z13	X14	Y14	Z14	X15	Y15	Z15	X16	Y16	Z16	X17	Y17	Z17	X18	Y18	Z18	X19	Y19	Z19	X20	Y20	Z20	X21	Y21	Z21	X22	Y22	Z22	X23	Y23	Z23	X24	Y24	Z24	X25	Y25	Z25	X26	Y26	Z26	X27	Y27	Z27	X28	Y28	Z28	X29	Y29	Z29	X30	Y30	Z30	X31	Y31	Z31	X32	Y32	Z32	X33	Y33	Z33	

1126	7.500000000000001	2412.174594686083	897.335954366951	893.7670959616029	1933.96085134657	94.46225449940907	987.7173701120062	1957.758286289374	104.3772677125948	941.7326827154261	1958.53690204841	135.1718866592788	983.7063102298556	2335.318400210606	968.6840034417496	845.2577985557595	2146.154187409123	43.33396799824759	988.5441571157465	2092.271701707657	45.12472457797176	893.0152748214555	2232.78557423041	950.8181972783293	980.7235230344046	2044.954722870918	205.4648674031553	919.6337957649272	2028.608605072863	224.1160418454716	969.3695496420551	2077.601339264765	277.604820032787	904.8949226805778	2064.429129959552	295.3713575350225	954.0274504260585	2242.709588176603	545.6577631988944	857.4333871382526	2185.727483530579	562.3115580065742	899.9769093528698	2259.250124546394	652.8310704862419	839.2241028915381	2205.438491735114	668.633989816573	881.1821910312009	2423.244623430901	911.5142629840152	1125.102201353205	2265.667190488377	198.1846449111444	1116.786418099019	2119.538453858969	311.0689681590418	1059.611792557825	2146.761225104918	311.5462316907416	1106.910943307513	2166.648824089286	331.9682911509393	1061.320564153485	2352.058703018384	977.8687260224671	1175.880867563428	2260.978050196797	148.6476008656588	1083.294653874931	2215.562706272672	185.8599335274674	1176.495321777696	2239.030396367273	946.9721843369521	1078.340461491793	2260.014065591824	344.392500852431	1139.637099353166	2246.079746495065	375.4484113374664	1101.224696963694	2324.210318995261	397.4191092293834	1156.5839276022	2305.849178751433	427.7477314376485	1116.852269189	2480.57056393199	583.4484138177378	1190.231189166464	2434.130020926476	554.4237937429263	1141.632022041293	2411.373827250736	667.5511023292627	1204.920110712562	2366.4165409444	639.3251493897814	1161.588498610881	
1127	7.506666666666667	2413.993241433139	900.5359653378671	894.3039592155211	1916.735575320889	106.7190988929575	987.1774377247394	1940.646815236203	114.270681843451	940.8344878146681	1943.17496131235	145.8275426791496	982.1041045965667	2340.667265925756	973.4459806410872	846.7045356771669	2124.663138592155	43.04190685004394	987.5270399659385	2070.734806443254	46.45302867802941	892.4719646251068	2235.087274816501	955.6097810446795	980.8806148890641	2028.279535677648	213.4030012373731	918.1540937554316	2012.441227560821	231.6361412928682	968.2025226835212	2061.071774039558	285.5942251832037	903.8571140401964	2048.360155147057	302.9499992175521	953.2863031778537	2232.510903811727	553.0724421576039	857.1386895705225	2176.052562096452	572.0946894412303	899.3514951119382	2253.749995254779	659.4141531309615	839.0740868014591	2200.265742765541	677.4448908648205	880.6879692383851	2424.279997825447	917.2734887537791	1124.157425329754	2292.124842182189	188.7756137924906	1118.075397162861	2138.52438773534	289.0688982067567	1056.610312293049	2164.766291293404	292.3512442808282	1104.345385097632	2183.840310559621	313.7391544553493	1058.728717131189	2354.358102598756	984.2466957532113	1175.694876933907	2291.868787672652	138.4790794535486	1085.435985798139	2241.908872070157	173.3783974917397	1177.084273647569	2241.107446401761	952.5241217207559	1078.70865142525	2275.434231537536	333.5665022638404	1138.414639876188	2259.808891326066	363.4631468544156	1099.756993317731	2335.530637964298	391.1706477429051	1155.765099975511	2315.553019808097	420.0181932602986	1115.744302898333	2485.512126022698	591.0471910783461	1190.190440346641	2439.202446052142	561.304906067874	1141.713818488609	2415.125960604117	673.9416057212292	1205.29490177466	2370.267020074633	645.1256073265304	1162.254937015048	
1128	7.513333333333334	2415.976545994472	903.5368590884277	895.1174338785551	1900.963277097009	119.9178652103938	986.6321522576003	1924.827594419713	125.0397980855581	939.9302389647783	1929.382531943923	157.1839884939397	980.4728789046237	2346.512456633247	978.02543202858	848.4031141054417	2103.78417620451	42.97861266485556	986.3827841132473	2049.722455369086	48.28188737086646	891.871339179008	2237.480335603259	960.3630514773525	980.9077121780268	2012.828437049305	221.7146785382699	916.5258247916172	1997.61635293233	239.4190936025955	966.9607100240161	2045.751329588718	293.9813434728038	902.7411338811431	2033.572548067649	310.8310741767046	952.4982233126536	2223.154107263757	560.8038768635167	856.8035903937795	2167.342093188834	582.0715136134291	898.787118661331	2248.897293380819	666.1634797091992	838.8961667550645	2195.855955622904	686.3046715604349	880.2553853845765	2425.264836248265	922.8762419968933	1123.309170393084	2319.090883016511	179.8663394902941	1119.329848359507	2159.038827682219	266.8877593750616	1053.53051602951	2184.023306198154	272.922681280123	1101.688398447308	2202.233838808363	295.1978240593695	1056.081300132769	2356.64768308728	990.7433527855942	1175.501708171962	2323.351150350852	129.1667800797407	1087.586027504169	2268.929169741977	161.3680855047968	1177.652295464699	2243.200866614614	958.045142660374	1078.967232897292	2291.38407412749	322.5043486151463	1137.049868651442	2274.233687058361	351.0315483404459	1098.036011586113	2346.989018486874	384.4347742191218	1154.781047511146	2325.607699664047	411.5660913933563	1114.341481192419	2489.694087512474	598.1335041473272	1190.039704379855	2443.35518979202	567.7240475643202	1141.820479682871	2418.374436873004	680.0399167488712	1205.574467031852	2373.479410968559	650.6972924324537	1162.943374453599	
1129	7.52	2418.095898706654	906.3050474604087	896.2042110154639	1886.620032998062	133.8712395874948	986.0667513276917	1910.264775275249	136.572978571137	939.0138038044126	1917.078325462153	169.0892407605395	978.8289632783144	2352.752964897925	982.3349466488287	850.2697321029796	2083.546458061929	43.32706238916828	985.1376395146405	2029.283281672266	50.73675582134891	891.22385134559	2239.93774106149	965.0409718098184	980.7631789184277	1998.596757242965	230.3093842828998	914.7873299489885	1984.110846135877	247.3956806677379	965.6631736146755	2031.677871141249	302.6509789202431	901.5714249663993	2020.090028841405	318.9198402180992	951.6719418150715	2214.656415254725	568.7117410776083	856.4513556912892	2159.598116865563	592.0690428457845	898.3208308242286	2244.651424523408	672.9836783851565	838.7132146396008	2192.171357701731	695.0885311348609	879.9266770273911	2426.191836974362	928.2960443381394	1122.610427491244	2346.518927536047	171.5401609533467	1120.490948358344	2181.0534633363	244.7273048515203	1050.570691601407	2204.561792950241	253.3984180915934	1099.109078368492	2221.806486888304	276.5176682512111	1053.541763482349	2358.835868635992	997.2719498134478	1175.301090028955	2355.329612348401	120.8381925814909	1089.63002445953	2296.67134129989	149.8851805474457	1178.181291821459	2245.272189503387	963.4750884556865	1079.068758531967	2307.884948014504	311.275923240027	1135.641612660753	2289.373875470337	338.2484408679762	1096.174111657223	2358.645701544436	377.2191141958528	1153.702051329884	2336.067865499899	402.4380458034305	1112.737490596732	2493.089945082038	604.5925283316335	1189.819903462047	2446.551837433222	573.5493791792832	1142.02319468428	2421.099744329651	685.7582267152088	1205.769339351628	2376.023656060181	655.928880118859	1163.68368566864	
